<svg id="Instagram" xmlns="http://www.w3.org/2000/svg" width="33" height="31" viewBox="0 0 33 31">
  <path id="Combined_Shape" data-name="Combined Shape" d="M16.5,31A16.943,16.943,0,0,1,4.833,26.46a14.844,14.844,0,0,1,0-21.92A16.943,16.943,0,0,1,16.5,0,16.944,16.944,0,0,1,28.168,4.54a14.844,14.844,0,0,1,0,21.92A16.944,16.944,0,0,1,16.5,31Zm0-23.766-.534,0c-1.883,0-2.219.011-3.093.049a6.863,6.863,0,0,0-2.137.383,4.363,4.363,0,0,0-1.559.953,4.038,4.038,0,0,0-1.015,1.464,5.755,5.755,0,0,0-.41,2.007c-.042.9-.052,1.2-.052,3.408,0,2.239.01,2.531.053,3.408a5.786,5.786,0,0,0,.409,2.006,4.028,4.028,0,0,0,1.015,1.464,4.327,4.327,0,0,0,1.558.954,6.859,6.859,0,0,0,2.137.384c.945.041,1.259.05,3.628.05s2.683-.01,3.628-.05a6.859,6.859,0,0,0,2.137-.384,4.326,4.326,0,0,0,1.558-.954,4.043,4.043,0,0,0,1.016-1.464,5.851,5.851,0,0,0,.409-2.006c.043-.9.053-1.192.053-3.408s-.01-2.513-.053-3.408a5.85,5.85,0,0,0-.409-2.006A4.048,4.048,0,0,0,23.822,8.62a4.361,4.361,0,0,0-1.558-.953,6.887,6.887,0,0,0-2.137-.383C19.182,7.243,18.868,7.233,16.5,7.233Z" fill="#677897"/>
  <path id="Combined_Shape-2" data-name="Combined Shape" d="M7.214,13.552c-2.337,0-2.617-.008-3.556-.049a5.187,5.187,0,0,1-1.634-.284A2.759,2.759,0,0,1,1.013,12.6a2.557,2.557,0,0,1-.659-.95,4.328,4.328,0,0,1-.3-1.535C.009,9.259,0,9,0,6.775s.009-2.482.05-3.34A4.341,4.341,0,0,1,.354,1.9,2.535,2.535,0,0,1,1.013.95,2.749,2.749,0,0,1,2.024.331,5.146,5.146,0,0,1,3.659.047C4.464.012,4.77,0,6.425,0l.789,0C9.571,0,9.848.01,10.77.05A5.17,5.17,0,0,1,12.4.334a2.754,2.754,0,0,1,1.012.618,2.567,2.567,0,0,1,.659.951,4.313,4.313,0,0,1,.3,1.535c.042.872.051,1.133.051,3.339s-.009,2.467-.051,3.34a4.327,4.327,0,0,1-.3,1.535,2.559,2.559,0,0,1-.659.949,2.754,2.754,0,0,1-1.012.618,5.129,5.129,0,0,1-1.634.284C9.83,13.544,9.55,13.552,7.214,13.552Zm0-11.019a4.394,4.394,0,0,0-4.52,4.245,4.394,4.394,0,0,0,4.52,4.244,4.393,4.393,0,0,0,4.518-4.244A4.393,4.393,0,0,0,7.214,2.534Zm4.7-1.159a1.026,1.026,0,0,0-1.056.992,1.058,1.058,0,0,0,2.112,0A1.027,1.027,0,0,0,11.911,1.374Z" transform="translate(9.287 8.721)" fill="#677897"/>
  <path id="Shape" d="M2.933,0A2.849,2.849,0,0,1,5.867,2.756,2.849,2.849,0,0,1,2.933,5.511,2.849,2.849,0,0,1,0,2.756,2.849,2.849,0,0,1,2.933,0Z" transform="translate(13.567 12.745)" fill="#677897"/>
</svg>
