<svg xmlns="http://www.w3.org/2000/svg" width="22.564" height="23.132" viewBox="0 0 22.564 23.132">
  <g id="_129" data-name="129" transform="translate(-0.105)">
    <path id="Shape" d="M2.893,5.786A2.893,2.893,0,1,1,5.787,2.893,2.9,2.9,0,0,1,2.893,5.786Zm0-4.968A2.075,2.075,0,1,0,4.968,2.893,2.077,2.077,0,0,0,2.893.818Z" transform="translate(8.493 3.974)" fill="#0081b5"/>
    <path id="Shape-2" data-name="Shape" d="M21.249,23.132H1.315a1.317,1.317,0,0,1-1.071-.5,1.317,1.317,0,0,1-.186-1.167l.913-3.195L1.993,14.7a1.526,1.526,0,0,1,1.4-1.059H7.179a24.328,24.328,0,0,1-1.908-3.43,8.6,8.6,0,0,1-.856-3.339,6.868,6.868,0,0,1,13.735,0,8.6,8.6,0,0,1-.856,3.339,24.32,24.32,0,0,1-1.908,3.43h3.781a1.525,1.525,0,0,1,1.4,1.059l1.022,3.576.913,3.195a1.258,1.258,0,0,1-1.257,1.666ZM3.4,14.455a.711.711,0,0,0-.618.466L1.758,18.5.846,21.691a.5.5,0,0,0,.052.449.5.5,0,0,0,.418.173H21.249a.447.447,0,0,0,.47-.623L20.806,18.5l-1.022-3.576a.71.71,0,0,0-.618-.466H14.835c-1.185,1.709-2.259,2.971-2.462,3.206a1.416,1.416,0,0,1-2.18,0c-.2-.236-1.278-1.5-2.462-3.206ZM11.282.818A6.056,6.056,0,0,0,5.233,6.868c0,1.953,1.505,4.625,2.768,6.521a41.821,41.821,0,0,0,2.809,3.736.611.611,0,0,0,.944,0,41.8,41.8,0,0,0,2.81-3.737c1.263-1.9,2.768-4.568,2.768-6.52A6.056,6.056,0,0,0,11.282.818Z" transform="translate(0.105)" fill="#0081b5"/>
  </g>
</svg>
