<svg id="Facebook" xmlns="http://www.w3.org/2000/svg" width="33" height="31" viewBox="0 0 33 31">
  <path id="Combined_Shape" data-name="Combined Shape" d="M16.5,31A16.943,16.943,0,0,1,4.833,26.46a14.844,14.844,0,0,1,0-21.92A16.943,16.943,0,0,1,16.5,0,16.944,16.944,0,0,1,28.168,4.54a14.844,14.844,0,0,1,0,21.92A16.944,16.944,0,0,1,16.5,31ZM12.1,12.758v2.906h1.856V24.1H17.67V15.665h2.478l.329-2.906H17.67l0-1.454c0-.744.057-1.165,1.236-1.165h1.549V7.233H17.98c-2.746,0-4.025,1.2-4.025,3.781v1.744Z" fill="#677897"/>
</svg>
