<svg xmlns="http://www.w3.org/2000/svg" width="20.834" height="20.82" viewBox="0 0 20.834 20.82">
  <path id="Shape" d="M16.368,20.82C11.167,20.82,0,9.656,0,4.456A4.235,4.235,0,0,1,1.243,1.449,4.136,4.136,0,0,1,4.137,0a4.947,4.947,0,0,1,3.25,1.724A5.182,5.182,0,0,1,9.078,4.456a3.133,3.133,0,0,1-.693,1.837c-.629.935-1.126,1.674,1.672,4.471,1.459,1.458,2.538,2.167,3.3,2.167a2.112,2.112,0,0,0,1.173-.5,3.137,3.137,0,0,1,1.837-.693A5.194,5.194,0,0,1,19.1,13.435h0c1.095,1.148,3.132,3.285.275,6.141A4.246,4.246,0,0,1,16.368,20.82ZM4.136.825a3.377,3.377,0,0,0-2.31,1.206,3.417,3.417,0,0,0-1,2.425c0,2.144,2.351,5.884,5.989,9.529S14.208,20,16.368,20a3.422,3.422,0,0,0,2.426-1c2.112-2.112,1.068-3.565-.291-4.989a4.752,4.752,0,0,0-2.136-1.436,2.368,2.368,0,0,0-1.377.552,2.857,2.857,0,0,1-1.634.636c-1.019,0-2.217-.743-3.883-2.409C6.43,8.3,6.819,7.142,7.7,5.832a2.36,2.36,0,0,0,.552-1.377A4.743,4.743,0,0,0,6.818,2.321,4.263,4.263,0,0,0,4.136.825Z" transform="translate(0 0)"/>
</svg>
