<svg id="Group_150" data-name="Group 150" xmlns="http://www.w3.org/2000/svg" width="28" height="28" viewBox="0 0 28 28">
  <rect id="Rectangle_86" data-name="Rectangle 86" width="28" height="28" fill="#da251d"/>
  <g id="Group_147" data-name="Group 147" transform="translate(19.191 4.667) rotate(90)">
    <path id="Path_69" data-name="Path 69" d="M16.714,7.451,9.72.456a1.6,1.6,0,0,0-2.24,0l-6.923,7a1.387,1.387,0,0,0-.136,2.1l.271.273a1.141,1.141,0,0,0,1.7.069C4.084,8.2,5.781,6.5,7.55,4.735a1.512,1.512,0,0,1,2.169,0c1.7,1.766,3.461,3.463,5.16,5.16a1.137,1.137,0,0,0,1.7-.069l.271-.273a1.442,1.442,0,0,0-.133-2.1Z" transform="translate(0 0)" fill="#fff" fill-rule="evenodd"/>
  </g>
</svg>
