<svg id="Cart" xmlns="http://www.w3.org/2000/svg" width="22.717" height="19.991" viewBox="0 0 22.717 19.991">
  <g id="Group_8" data-name="Group 8" transform="translate(0 0)">
    <path id="Path" d="M.84,1.662H3.25L6.681,13.93a.839.839,0,0,0,.812.609H18.041a.843.843,0,0,0,.77-.5l3.838-8.723a.833.833,0,0,0-.77-1.163H10.225a.831.831,0,1,0,0,1.662H20.59l-3.11,7.062H8.124L4.692.609A.839.839,0,0,0,3.88,0H.84A.838.838,0,0,0,0,.831.838.838,0,0,0,.84,1.662Z" fill="#fff"/>
    <path id="Path-2" data-name="Path" d="M1.817,3.635A1.817,1.817,0,1,0,0,1.817,1.819,1.819,0,0,0,1.817,3.635Z" transform="translate(4.543 16.356)" fill="#fff"/>
    <path id="Path-3" data-name="Path" d="M1.811,3.635h.134a1.883,1.883,0,1,0-.134,0Z" transform="translate(16.356 16.356)" fill="#fff"/>
  </g>
</svg>
