<svg xmlns="http://www.w3.org/2000/svg" width="21.853" height="21.852" viewBox="0 0 21.853 21.852">
  <g id="_170" data-name="170" transform="translate(0 -0.003)">
    <path id="Shape" d="M14.537,18.512C9.918,18.511,0,8.593,0,3.974A3.779,3.779,0,0,1,1.108,1.292,3.687,3.687,0,0,1,3.689,0a4.408,4.408,0,0,1,2.9,1.536A4.513,4.513,0,0,1,8.01,4.056a2.76,2.76,0,0,1-.6,1.617c-.522.786-.934,1.407,1.541,3.882,1.309,1.31,2.263,1.947,2.917,1.947a1.741,1.741,0,0,0,.965-.405h0a2.761,2.761,0,0,1,1.616-.6,4.526,4.526,0,0,1,2.522,1.424c.907.951,2.793,2.929.244,5.478A3.787,3.787,0,0,1,14.537,18.512ZM3.689.773A2.974,2.974,0,0,0,1.655,1.838,3.01,3.01,0,0,0,.773,3.974c0,1.9,2.083,5.208,5.306,8.438s6.548,5.325,8.458,5.325a3.012,3.012,0,0,0,2.137-.883c1.86-1.86.94-3.141-.257-4.4a3.94,3.94,0,0,0-1.963-1.184,2.043,2.043,0,0,0-1.189.467h0a2.45,2.45,0,0,1-1.392.533c-.893,0-1.962-.67-3.464-2.172C5.7,7.391,6.018,6.379,6.77,5.246a2.044,2.044,0,0,0,.467-1.189A3.931,3.931,0,0,0,6.053,2.1,3.763,3.763,0,0,0,3.689.773Z" transform="translate(0 3.343)" fill="#0081b5"/>
    <path id="Shape-2" data-name="Shape" d="M.645,2.5A8.175,8.175,0,0,1,12.1,14a.4.4,0,0,0,.045.551.374.374,0,0,0,.539-.043A8.948,8.948,0,0,0,.139,1.919a.374.374,0,0,0-.045.539A.4.4,0,0,0,.645,2.5Z" transform="translate(7.226 0.003)" fill="#0081b5"/>
    <path id="Shape-3" data-name="Shape" d="M6.058,7.236a.364.364,0,0,0,.529-.086A4.624,4.624,0,0,0,7.3,4.667a4.728,4.728,0,0,0-.035-.576A4.67,4.67,0,0,0,2.634,0,4.623,4.623,0,0,0,.164.706a.363.363,0,0,0-.088.528.418.418,0,0,0,.552.094A3.895,3.895,0,0,1,6.5,4.186a3.908,3.908,0,0,1,.03.481,3.858,3.858,0,0,1-.562,2.017A.419.419,0,0,0,6.058,7.236Z" transform="translate(10.28 4.273)" fill="#0081b5"/>
  </g>
</svg>
